<mxfile host="app.diagrams.net" modified="2024-06-11T06:56:27.280Z" agent="Mozilla/5.0 (Windows NT 10.0; Win64; x64) AppleWebKit/537.36 (KHTML, like Gecko) Chrome/125.0.0.0 Safari/537.36 Edg/125.0.0.0" etag="Ez6cWgkHfQ79zN7ocuYZ" version="24.5.2" type="github">
  <diagram name="第 1 页" id="smMwHirfsZ6QMiGASpG9">
    <mxGraphModel dx="808" dy="1118" grid="1" gridSize="10" guides="1" tooltips="1" connect="1" arrows="1" fold="1" page="1" pageScale="1" pageWidth="827" pageHeight="1169" math="0" shadow="0">
      <root>
        <mxCell id="0" />
        <mxCell id="1" parent="0" />
        <mxCell id="XLei9tXY5pJdT6jj4i4X-2" value="" style="rounded=0;whiteSpace=wrap;html=1;" vertex="1" parent="1">
          <mxGeometry x="100" y="570" width="620" height="140" as="geometry" />
        </mxCell>
        <mxCell id="XLei9tXY5pJdT6jj4i4X-3" value="文件服务" style="rounded=0;whiteSpace=wrap;html=1;" vertex="1" parent="1">
          <mxGeometry x="200" y="650" width="90" height="35" as="geometry" />
        </mxCell>
        <mxCell id="XLei9tXY5pJdT6jj4i4X-4" value="&lt;b&gt;实时库&lt;/b&gt;" style="rounded=0;whiteSpace=wrap;html=1;" vertex="1" parent="1">
          <mxGeometry x="200" y="585" width="90" height="35" as="geometry" />
        </mxCell>
        <mxCell id="XLei9tXY5pJdT6jj4i4X-5" value="日志服务" style="rounded=0;whiteSpace=wrap;html=1;" vertex="1" parent="1">
          <mxGeometry x="310" y="650" width="90" height="35" as="geometry" />
        </mxCell>
        <mxCell id="XLei9tXY5pJdT6jj4i4X-6" value="模型库" style="rounded=0;whiteSpace=wrap;html=1;" vertex="1" parent="1">
          <mxGeometry x="310" y="585" width="90" height="35" as="geometry" />
        </mxCell>
        <mxCell id="XLei9tXY5pJdT6jj4i4X-7" value="采样库" style="rounded=0;whiteSpace=wrap;html=1;" vertex="1" parent="1">
          <mxGeometry x="414" y="585" width="90" height="35" as="geometry" />
        </mxCell>
        <mxCell id="XLei9tXY5pJdT6jj4i4X-8" value="人机界面" style="rounded=0;whiteSpace=wrap;html=1;" vertex="1" parent="1">
          <mxGeometry x="520" y="585" width="90" height="35" as="geometry" />
        </mxCell>
        <mxCell id="XLei9tXY5pJdT6jj4i4X-9" value="权限管理" style="rounded=0;whiteSpace=wrap;html=1;" vertex="1" parent="1">
          <mxGeometry x="620" y="585" width="90" height="35" as="geometry" />
        </mxCell>
        <mxCell id="XLei9tXY5pJdT6jj4i4X-10" value="系统管理" style="rounded=0;whiteSpace=wrap;html=1;" vertex="1" parent="1">
          <mxGeometry x="414" y="650" width="90" height="35" as="geometry" />
        </mxCell>
        <mxCell id="XLei9tXY5pJdT6jj4i4X-11" value="升级服务" style="rounded=0;whiteSpace=wrap;html=1;" vertex="1" parent="1">
          <mxGeometry x="520" y="650" width="90" height="35" as="geometry" />
        </mxCell>
        <mxCell id="XLei9tXY5pJdT6jj4i4X-12" value="日志服务" style="rounded=0;whiteSpace=wrap;html=1;" vertex="1" parent="1">
          <mxGeometry x="620" y="650" width="90" height="35" as="geometry" />
        </mxCell>
        <mxCell id="XLei9tXY5pJdT6jj4i4X-13" value="基础组件" style="text;html=1;align=center;verticalAlign=middle;whiteSpace=wrap;rounded=0;" vertex="1" parent="1">
          <mxGeometry x="110" y="620" width="60" height="30" as="geometry" />
        </mxCell>
        <mxCell id="XLei9tXY5pJdT6jj4i4X-14" value="" style="rounded=0;whiteSpace=wrap;html=1;opacity=50;fillColor=#d5e8d4;strokeColor=#82b366;" vertex="1" parent="1">
          <mxGeometry x="621" y="584.5" width="59" height="35" as="geometry" />
        </mxCell>
        <mxCell id="XLei9tXY5pJdT6jj4i4X-16" value="" style="rounded=0;whiteSpace=wrap;html=1;fillColor=#d5e8d4;strokeColor=#82b366;opacity=50;" vertex="1" parent="1">
          <mxGeometry x="520" y="585" width="50" height="35" as="geometry" />
        </mxCell>
        <mxCell id="XLei9tXY5pJdT6jj4i4X-17" value="" style="rounded=0;whiteSpace=wrap;html=1;fillColor=#d5e8d4;strokeColor=#82b366;opacity=50;" vertex="1" parent="1">
          <mxGeometry x="200" y="650" width="50" height="35" as="geometry" />
        </mxCell>
        <mxCell id="XLei9tXY5pJdT6jj4i4X-18" value="" style="rounded=0;whiteSpace=wrap;html=1;fillColor=#d5e8d4;strokeColor=#82b366;opacity=50;" vertex="1" parent="1">
          <mxGeometry x="310" y="650" width="70" height="35" as="geometry" />
        </mxCell>
        <mxCell id="XLei9tXY5pJdT6jj4i4X-19" value="" style="rounded=0;whiteSpace=wrap;html=1;fillColor=#d5e8d4;strokeColor=#82b366;opacity=50;" vertex="1" parent="1">
          <mxGeometry x="415" y="651" width="45" height="35" as="geometry" />
        </mxCell>
        <mxCell id="XLei9tXY5pJdT6jj4i4X-20" value="" style="rounded=0;whiteSpace=wrap;html=1;fillColor=#d5e8d4;strokeColor=#82b366;opacity=50;" vertex="1" parent="1">
          <mxGeometry x="620" y="650" width="80" height="35" as="geometry" />
        </mxCell>
        <mxCell id="XLei9tXY5pJdT6jj4i4X-22" value="" style="rounded=0;whiteSpace=wrap;html=1;opacity=40;fillColor=#d5e8d4;strokeColor=#82b366;" vertex="1" parent="1">
          <mxGeometry x="200" y="585" width="80" height="35" as="geometry" />
        </mxCell>
        <mxCell id="XLei9tXY5pJdT6jj4i4X-23" value="" style="rounded=0;whiteSpace=wrap;html=1;opacity=40;fillColor=#d5e8d4;strokeColor=#82b366;" vertex="1" parent="1">
          <mxGeometry x="310" y="585" width="80" height="35" as="geometry" />
        </mxCell>
        <mxCell id="XLei9tXY5pJdT6jj4i4X-24" value="" style="rounded=0;whiteSpace=wrap;html=1;opacity=50;fillColor=#d5e8d4;strokeColor=#82b366;" vertex="1" parent="1">
          <mxGeometry x="415" y="585" width="77" height="35" as="geometry" />
        </mxCell>
        <mxCell id="XLei9tXY5pJdT6jj4i4X-25" value="" style="rounded=0;whiteSpace=wrap;html=1;" vertex="1" parent="1">
          <mxGeometry x="100" y="500" width="620" height="60" as="geometry" />
        </mxCell>
        <mxCell id="XLei9tXY5pJdT6jj4i4X-26" value="消息总线" style="rounded=0;whiteSpace=wrap;html=1;" vertex="1" parent="1">
          <mxGeometry x="195" y="510" width="325" height="40" as="geometry" />
        </mxCell>
        <mxCell id="XLei9tXY5pJdT6jj4i4X-27" value="服务总线" style="rounded=0;whiteSpace=wrap;html=1;" vertex="1" parent="1">
          <mxGeometry x="540" y="510" width="145" height="40" as="geometry" />
        </mxCell>
        <mxCell id="XLei9tXY5pJdT6jj4i4X-28" value="" style="rounded=0;whiteSpace=wrap;html=1;fillColor=#fff2cc;strokeColor=#d6b656;opacity=40;" vertex="1" parent="1">
          <mxGeometry x="195" y="510" width="295" height="40" as="geometry" />
        </mxCell>
        <mxCell id="XLei9tXY5pJdT6jj4i4X-29" value="通信" style="text;html=1;align=center;verticalAlign=middle;whiteSpace=wrap;rounded=0;" vertex="1" parent="1">
          <mxGeometry x="120" y="515" width="60" height="30" as="geometry" />
        </mxCell>
        <mxCell id="XLei9tXY5pJdT6jj4i4X-30" value="" style="rounded=0;whiteSpace=wrap;html=1;" vertex="1" parent="1">
          <mxGeometry x="100" y="330" width="620" height="160" as="geometry" />
        </mxCell>
        <mxCell id="XLei9tXY5pJdT6jj4i4X-31" value="" style="rounded=0;whiteSpace=wrap;html=1;" vertex="1" parent="1">
          <mxGeometry x="180" y="340" width="520" height="60" as="geometry" />
        </mxCell>
        <mxCell id="XLei9tXY5pJdT6jj4i4X-34" value="实时数据查看" style="rounded=0;whiteSpace=wrap;html=1;" vertex="1" parent="1">
          <mxGeometry x="250" y="350" width="100" height="40" as="geometry" />
        </mxCell>
        <mxCell id="XLei9tXY5pJdT6jj4i4X-35" value="画面编辑器" style="rounded=0;whiteSpace=wrap;html=1;" vertex="1" parent="1">
          <mxGeometry x="360" y="350" width="100" height="40" as="geometry" />
        </mxCell>
        <mxCell id="XLei9tXY5pJdT6jj4i4X-36" value="模型维护工具" style="rounded=0;whiteSpace=wrap;html=1;" vertex="1" parent="1">
          <mxGeometry x="470" y="350" width="100" height="40" as="geometry" />
        </mxCell>
        <mxCell id="XLei9tXY5pJdT6jj4i4X-37" value="采样定义" style="rounded=0;whiteSpace=wrap;html=1;" vertex="1" parent="1">
          <mxGeometry x="585" y="350" width="100" height="40" as="geometry" />
        </mxCell>
        <mxCell id="XLei9tXY5pJdT6jj4i4X-38" value="基础工具" style="text;html=1;align=center;verticalAlign=middle;whiteSpace=wrap;rounded=0;" vertex="1" parent="1">
          <mxGeometry x="180" y="355" width="60" height="30" as="geometry" />
        </mxCell>
        <mxCell id="XLei9tXY5pJdT6jj4i4X-39" value="" style="rounded=0;whiteSpace=wrap;html=1;" vertex="1" parent="1">
          <mxGeometry x="180" y="420" width="520" height="60" as="geometry" />
        </mxCell>
        <mxCell id="XLei9tXY5pJdT6jj4i4X-40" value="基础处理" style="text;html=1;align=center;verticalAlign=middle;whiteSpace=wrap;rounded=0;" vertex="1" parent="1">
          <mxGeometry x="180" y="435" width="60" height="30" as="geometry" />
        </mxCell>
        <mxCell id="XLei9tXY5pJdT6jj4i4X-41" value="数据采集" style="rounded=0;whiteSpace=wrap;html=1;" vertex="1" parent="1">
          <mxGeometry x="250" y="430" width="100" height="40" as="geometry" />
        </mxCell>
        <mxCell id="XLei9tXY5pJdT6jj4i4X-42" value="数据清洗" style="rounded=0;whiteSpace=wrap;html=1;" vertex="1" parent="1">
          <mxGeometry x="364" y="430" width="100" height="40" as="geometry" />
        </mxCell>
        <mxCell id="XLei9tXY5pJdT6jj4i4X-43" value="数据处理" style="rounded=0;whiteSpace=wrap;html=1;" vertex="1" parent="1">
          <mxGeometry x="470" y="430" width="100" height="40" as="geometry" />
        </mxCell>
        <mxCell id="XLei9tXY5pJdT6jj4i4X-44" value="操作与控制" style="rounded=0;whiteSpace=wrap;html=1;" vertex="1" parent="1">
          <mxGeometry x="585" y="430" width="100" height="40" as="geometry" />
        </mxCell>
        <mxCell id="XLei9tXY5pJdT6jj4i4X-45" value="公共服务" style="text;html=1;align=center;verticalAlign=middle;whiteSpace=wrap;rounded=0;" vertex="1" parent="1">
          <mxGeometry x="110" y="400" width="60" height="30" as="geometry" />
        </mxCell>
        <mxCell id="XLei9tXY5pJdT6jj4i4X-46" value="" style="rounded=0;whiteSpace=wrap;html=1;fillColor=#f8cecc;strokeColor=#b85450;opacity=40;" vertex="1" parent="1">
          <mxGeometry x="249" y="430" width="90" height="40" as="geometry" />
        </mxCell>
        <mxCell id="XLei9tXY5pJdT6jj4i4X-49" value="" style="rounded=0;whiteSpace=wrap;html=1;fillColor=#f8cecc;strokeColor=#b85450;opacity=40;" vertex="1" parent="1">
          <mxGeometry x="365" y="430" width="90" height="40" as="geometry" />
        </mxCell>
        <mxCell id="XLei9tXY5pJdT6jj4i4X-50" value="" style="rounded=0;whiteSpace=wrap;html=1;fillColor=#f8cecc;strokeColor=#b85450;opacity=40;" vertex="1" parent="1">
          <mxGeometry x="470" y="430" width="90" height="40" as="geometry" />
        </mxCell>
        <mxCell id="XLei9tXY5pJdT6jj4i4X-51" value="" style="rounded=0;whiteSpace=wrap;html=1;fillColor=#f8cecc;strokeColor=#b85450;opacity=40;" vertex="1" parent="1">
          <mxGeometry x="585" y="430" width="65" height="40" as="geometry" />
        </mxCell>
        <mxCell id="XLei9tXY5pJdT6jj4i4X-52" value="" style="rounded=0;whiteSpace=wrap;html=1;fillColor=#f8cecc;strokeColor=#b85450;opacity=40;" vertex="1" parent="1">
          <mxGeometry x="470" y="350" width="90" height="40" as="geometry" />
        </mxCell>
        <mxCell id="XLei9tXY5pJdT6jj4i4X-53" value="" style="rounded=0;whiteSpace=wrap;html=1;fillColor=#f8cecc;strokeColor=#b85450;opacity=40;" vertex="1" parent="1">
          <mxGeometry x="360" y="350" width="60" height="40" as="geometry" />
        </mxCell>
        <mxCell id="XLei9tXY5pJdT6jj4i4X-54" value="" style="rounded=0;whiteSpace=wrap;html=1;fillColor=#f8cecc;strokeColor=#b85450;opacity=40;" vertex="1" parent="1">
          <mxGeometry x="249" y="350" width="71" height="40" as="geometry" />
        </mxCell>
        <mxCell id="XLei9tXY5pJdT6jj4i4X-55" value="" style="rounded=0;whiteSpace=wrap;html=1;fillColor=#f8cecc;strokeColor=#b85450;opacity=40;" vertex="1" parent="1">
          <mxGeometry x="585" y="350" width="85" height="40" as="geometry" />
        </mxCell>
        <mxCell id="XLei9tXY5pJdT6jj4i4X-56" value="" style="rounded=0;whiteSpace=wrap;html=1;" vertex="1" parent="1">
          <mxGeometry x="100" y="150" width="620" height="160" as="geometry" />
        </mxCell>
        <mxCell id="XLei9tXY5pJdT6jj4i4X-57" value="发电监控" style="rounded=0;whiteSpace=wrap;html=1;" vertex="1" parent="1">
          <mxGeometry x="185" y="178" width="85" height="40" as="geometry" />
        </mxCell>
        <mxCell id="XLei9tXY5pJdT6jj4i4X-61" value="储能监控" style="rounded=0;whiteSpace=wrap;html=1;" vertex="1" parent="1">
          <mxGeometry x="295" y="178" width="85" height="40" as="geometry" />
        </mxCell>
        <mxCell id="XLei9tXY5pJdT6jj4i4X-62" value="负荷监控" style="rounded=0;whiteSpace=wrap;html=1;" vertex="1" parent="1">
          <mxGeometry x="400" y="178" width="85" height="40" as="geometry" />
        </mxCell>
        <mxCell id="XLei9tXY5pJdT6jj4i4X-63" value="全景监控" style="rounded=0;whiteSpace=wrap;html=1;" vertex="1" parent="1">
          <mxGeometry x="504" y="178" width="85" height="40" as="geometry" />
        </mxCell>
        <mxCell id="XLei9tXY5pJdT6jj4i4X-64" value="源荷互动" style="rounded=0;whiteSpace=wrap;html=1;" vertex="1" parent="1">
          <mxGeometry x="615" y="178" width="85" height="40" as="geometry" />
        </mxCell>
        <mxCell id="XLei9tXY5pJdT6jj4i4X-67" value="黑启动" style="rounded=0;whiteSpace=wrap;html=1;" vertex="1" parent="1">
          <mxGeometry x="185" y="248" width="85" height="40" as="geometry" />
        </mxCell>
        <mxCell id="XLei9tXY5pJdT6jj4i4X-68" value="AVC" style="rounded=0;whiteSpace=wrap;html=1;" vertex="1" parent="1">
          <mxGeometry x="295" y="248" width="85" height="40" as="geometry" />
        </mxCell>
        <mxCell id="XLei9tXY5pJdT6jj4i4X-69" value="AGC" style="rounded=0;whiteSpace=wrap;html=1;" vertex="1" parent="1">
          <mxGeometry x="400" y="248" width="85" height="40" as="geometry" />
        </mxCell>
        <mxCell id="XLei9tXY5pJdT6jj4i4X-70" value="功率预测" style="rounded=0;whiteSpace=wrap;html=1;" vertex="1" parent="1">
          <mxGeometry x="504" y="248" width="85" height="40" as="geometry" />
        </mxCell>
        <mxCell id="XLei9tXY5pJdT6jj4i4X-71" value="发电计划" style="rounded=0;whiteSpace=wrap;html=1;" vertex="1" parent="1">
          <mxGeometry x="615" y="248" width="85" height="40" as="geometry" />
        </mxCell>
      </root>
    </mxGraphModel>
  </diagram>
</mxfile>
